<svg width="24" height="25" viewBox="0 0 24 25" fill="none" xmlns="http://www.w3.org/2000/svg">
<path d="M20.25 3.5H4.5C4.30109 3.5 4.11032 3.57902 3.96967 3.71967C3.82902 3.86032 3.75 4.05109 3.75 4.25V13.25C3.75136 14.4431 4.22591 15.5869 5.06953 16.4305C5.91314 17.2741 7.05694 17.7486 8.25 17.75H13.5C14.6931 17.7486 15.8369 17.2741 16.6805 16.4305C17.5241 15.5869 17.9986 14.4431 18 13.25V9.5H18.8438C19.6143 9.49913 20.353 9.19266 20.8978 8.64782C21.4427 8.10298 21.7491 7.36427 21.75 6.59375V5C21.75 4.60218 21.592 4.22064 21.3107 3.93934C21.0294 3.65804 20.6478 3.5 20.25 3.5ZM20.25 6.59375C20.25 6.96671 20.1018 7.3244 19.8381 7.58812C19.5744 7.85184 19.2167 8 18.8438 8H18V5H20.25V6.59375ZM18.75 19.25H3C2.80109 19.25 2.61032 19.329 2.46967 19.4697C2.32902 19.6103 2.25 19.8011 2.25 20C2.25 20.1989 2.32902 20.3897 2.46967 20.5303C2.61032 20.671 2.80109 20.75 3 20.75H18.75C18.9489 20.75 19.1397 20.671 19.2803 20.5303C19.421 20.3897 19.5 20.1989 19.5 20C19.5 19.8011 19.421 19.6103 19.2803 19.4697C19.1397 19.329 18.9489 19.25 18.75 19.25Z" fill="#112211"/>
</svg>
