<svg width="24" height="24" viewBox="0 0 24 24" fill="none" xmlns="http://www.w3.org/2000/svg">
<g clip-path="url(#clip0_348_2429)">
<path d="M0.96 4.46399C0.429912 4.46399 0 4.89378 0 5.42399V18.576C0 19.1062 0.430128 19.536 0.96 19.536H23.04C23.5701 19.536 24 19.1062 24 18.576V5.42399C24 4.89381 23.5699 4.46399 23.04 4.46399H0.96ZM14.334 8.95573C14.9181 8.95573 15.3862 9.08476 15.6847 9.20473L15.4807 10.488L15.3457 10.4197C15.0677 10.2998 14.7105 10.1843 14.2177 10.1925C13.6279 10.1925 13.3553 10.4556 13.3553 10.7018C13.3518 10.9791 13.6739 11.1621 14.2005 11.436C15.0697 11.8586 15.4714 12.3711 15.4658 13.0447C15.4541 14.2739 14.426 15.0682 12.8423 15.0682C12.1666 15.0608 11.5156 14.9178 11.1637 14.7525L11.3753 13.4265L11.5695 13.521C12.0643 13.7421 12.3847 13.8315 12.9877 13.8315C13.4208 13.8315 13.8856 13.6502 13.8893 13.2532C13.8921 12.994 13.695 12.8092 13.1085 12.519C12.537 12.2357 11.7794 11.7611 11.7878 10.9102C11.7967 9.75918 12.8453 8.95573 14.334 8.95573ZM2.12249 9.14399H4.55474C4.88227 9.15637 5.1467 9.26183 5.238 9.61725L5.76226 12.3232C5.76233 12.3235 5.76216 12.3245 5.76226 12.3247L5.91974 13.1355L7.39649 9.14399H8.994L6.61949 14.9865L5.02349 14.988L3.753 10.2735C4.50895 10.674 5.15254 11.1373 5.52526 11.775C5.42916 11.5732 5.30254 11.3455 5.14051 11.121C4.95182 10.8596 4.54433 10.5221 4.374 10.3785C3.78048 9.87815 2.97444 9.47406 2.10374 9.26025L2.12249 9.14399ZM9.62926 9.15073H11.1915L10.2142 14.9842H8.652L9.62926 9.15073ZM18.453 9.15073H19.6365L20.8755 14.9842H19.455C19.455 14.9842 19.3141 14.3141 19.2683 14.1097C19.045 14.1097 17.4834 14.1075 17.3077 14.1075C17.2483 14.2654 16.9853 14.9842 16.9853 14.9842H15.378L17.6513 9.63525C17.8122 9.25513 18.0865 9.15073 18.453 9.15073ZM18.5693 10.7197C18.4924 10.9367 18.3585 11.2871 18.3675 11.2717C18.3675 11.2717 17.8866 12.5543 17.7608 12.8872L19.0245 12.8865C18.9071 12.3302 18.7896 11.774 18.672 11.2178L18.5693 10.7198V10.7197Z" fill="#1434CB"/>
</g>
<defs>
<clipPath id="clip0_348_2429">
<rect width="24" height="24" fill="white"/>
</clipPath>
</defs>
</svg>
