<svg width="24" height="25" viewBox="0 0 24 25" fill="none" xmlns="http://www.w3.org/2000/svg">
<path d="M16.2485 14.7641C15.0816 13.7268 13.5745 13.1538 12.0131 13.1538C10.4518 13.1538 8.94472 13.7268 7.77776 14.7641C7.67915 14.8495 7.59848 14.9535 7.54043 15.0703C7.48238 15.1871 7.4481 15.3142 7.4396 15.4443C7.43109 15.5744 7.44852 15.7049 7.49088 15.8283C7.53324 15.9516 7.59968 16.0653 7.68634 16.1627C7.773 16.2602 7.87816 16.3394 7.9957 16.3959C8.11324 16.4523 8.24083 16.4849 8.37106 16.4916C8.50128 16.4983 8.63155 16.4791 8.75429 16.4351C8.87703 16.391 8.98979 16.3231 9.08604 16.2351C9.89258 15.5183 10.9341 15.1223 12.0131 15.1223C13.0922 15.1223 14.1337 15.5183 14.9403 16.2351C15.1354 16.4086 15.3915 16.4974 15.6522 16.4821C15.9129 16.4667 16.1568 16.3485 16.3303 16.1533C16.5038 15.9581 16.5927 15.702 16.5773 15.4413C16.562 15.1806 16.4437 14.9367 16.2485 14.7632V14.7641Z" fill="black"/>
<path d="M12.0135 9.11085C9.37059 9.10721 6.82577 10.1117 4.89789 11.9196C4.80029 12.007 4.72112 12.1131 4.66503 12.2315C4.60894 12.3499 4.57707 12.4784 4.57127 12.6093C4.56548 12.7402 4.58589 12.871 4.63129 12.9939C4.6767 13.1168 4.74619 13.2295 4.83569 13.3252C4.9252 13.4209 5.03291 13.4978 5.15252 13.5513C5.27213 13.6048 5.40123 13.634 5.53224 13.6369C5.66324 13.6399 5.79353 13.6167 5.91546 13.5687C6.03738 13.5207 6.14849 13.4488 6.24227 13.3573C7.80765 11.8938 9.87057 11.0796 12.0135 11.0796C14.1565 11.0796 16.2194 11.8938 17.7848 13.3573C17.8785 13.4488 17.9897 13.5207 18.1116 13.5687C18.2335 13.6167 18.3638 13.6399 18.4948 13.6369C18.6258 13.634 18.7549 13.6048 18.8745 13.5513C18.9941 13.4978 19.1018 13.4209 19.1913 13.3252C19.2808 13.2295 19.3503 13.1168 19.3957 12.9939C19.4412 12.871 19.4616 12.7402 19.4558 12.6093C19.45 12.4784 19.4181 12.3499 19.362 12.2315C19.3059 12.1131 19.2268 12.007 19.1291 11.9196C17.2013 10.1117 14.6565 9.10721 12.0135 9.11085Z" fill="black"/>
<path d="M21.6567 8.74353C19.0027 6.37558 15.5703 5.06689 12.0135 5.06689C8.45677 5.06689 5.02435 6.37558 2.37041 8.74353C2.27067 8.82873 2.18896 8.93301 2.13009 9.05023C2.07122 9.16746 2.03637 9.29527 2.0276 9.42615C2.01882 9.55704 2.03629 9.68836 2.07899 9.81239C2.12168 9.93643 2.18874 10.0507 2.27621 10.1484C2.36369 10.2462 2.46982 10.3255 2.58837 10.3816C2.70692 10.4378 2.8355 10.4697 2.96655 10.4754C3.0976 10.4812 3.22848 10.4607 3.3515 10.4152C3.47452 10.3696 3.5872 10.3 3.68291 10.2102C5.97586 8.16527 8.94091 7.03515 12.0133 7.03515C15.0857 7.03515 18.0507 8.16527 20.3437 10.2102C20.5383 10.3843 20.7941 10.4739 21.0548 10.4594C21.3155 10.4448 21.5597 10.3273 21.7338 10.1327C21.9078 9.93805 21.9974 9.68225 21.9829 9.42156C21.9683 9.16087 21.8508 8.91664 21.6562 8.74259L21.6567 8.74353Z" fill="black"/>
<path d="M12.0117 20.4412C12.8401 20.4412 13.5117 19.7696 13.5117 18.9412C13.5117 18.1127 12.8401 17.4412 12.0117 17.4412C11.1833 17.4412 10.5117 18.1127 10.5117 18.9412C10.5117 19.7696 11.1833 20.4412 12.0117 20.4412Z" fill="black"/>
</svg>
